<svg width="350" height="42" viewBox="0 0 350 42" fill="none" xmlns="http://www.w3.org/2000/svg">
<path d="M13.248 34.18C11.592 34.18 10.008 33.892 8.496 33.316C7.008 32.716 5.688 31.852 4.536 30.724C3.384 29.572 2.472 28.192 1.8 26.584C1.152 24.952 0.828 23.092 0.828 21.004C0.828 19.204 1.164 17.536 1.836 16C2.508 14.464 3.432 13.12 4.608 11.968C5.808 10.792 7.2 9.88 8.784 9.232C10.368 8.584 12.084 8.26 13.932 8.26C16.236 8.26 18.324 8.764 20.196 9.772C22.068 10.756 23.46 12.112 24.372 13.84L19.152 17.836C18.648 16.828 17.892 16.024 16.884 15.424C15.876 14.8 14.808 14.488 13.68 14.488C12.84 14.488 12.072 14.656 11.376 14.992C10.68 15.328 10.068 15.796 9.54 16.396C9.036 16.996 8.64 17.716 8.352 18.556C8.088 19.372 7.956 20.272 7.956 21.256C7.956 22.264 8.1 23.176 8.388 23.992C8.676 24.808 9.072 25.516 9.576 26.116C10.104 26.692 10.728 27.148 11.448 27.484C12.168 27.796 12.972 27.952 13.86 27.952C14.988 27.952 16.068 27.676 17.1 27.124C18.132 26.548 19.068 25.744 19.908 24.712V31.552C17.988 33.304 15.768 34.18 13.248 34.18ZM19.548 25.432H14.832V20.392H25.344V34H19.548V25.432ZM28.8093 34V8.44H38.6373C41.4693 8.44 43.8333 9.016 45.7293 10.168C47.6493 11.296 49.0893 12.832 50.0493 14.776C51.0333 16.696 51.5253 18.832 51.5253 21.184C51.5253 23.776 50.9853 26.032 49.9053 27.952C48.8493 29.872 47.3493 31.36 45.4053 32.416C43.4853 33.472 41.2293 34 38.6373 34H28.8093ZM44.3973 21.184C44.3973 19.864 44.1693 18.712 43.7133 17.728C43.2573 16.72 42.5973 15.94 41.7333 15.388C40.8693 14.836 39.8373 14.56 38.6373 14.56H35.8293V27.88H38.6373C39.8613 27.88 40.8933 27.592 41.7333 27.016C42.5973 26.44 43.2573 25.648 43.7133 24.64C44.1693 23.608 44.3973 22.456 44.3973 21.184ZM54.1828 34V27.376H59.7268V34H54.1828Z" fill="white"/>
<path d="M343.333 28.6667H316.667M343.333 15.3334H316.667H343.333Z" stroke="#023047" stroke-width="4.33333" stroke-linecap="round" stroke-linejoin="round"/>
</svg>
